<?xml version="1.0" encoding="UTF-8"?>
<svg width="177px" height="34px" viewBox="0 0 177 34" version="1.1" xmlns="http://www.w3.org/2000/svg" xmlns:xlink="http://www.w3.org/1999/xlink">
    <!-- Generator: Sketch 49.2 (51160) - http://www.bohemiancoding.com/sketch -->
    <title>AcmeCorp</title>
    <desc>Created with Sketch.</desc>
    <defs></defs>
    <g id="Main" stroke="none" stroke-width="1" fill="none" fill-rule="evenodd">
        <g id="Home-exports" transform="translate(-120.000000, -24.000000)" fill="#00C115">
            <g id="Navigation">
                <path d="M129.926,25.296 L134.714,25.296 L144.614,51 L139.79,51 L137.378,44.196 L127.118,44.196 L124.706,51 L120.062,51 L129.926,25.296 Z M128.342,40.776 L136.19,40.776 L132.338,29.724 L132.23,29.724 L128.342,40.776 Z M159.05,38.616 C158.881999,37.4639942 158.420004,36.5940029 157.664,36.006 C156.907996,35.4179971 155.954006,35.124 154.802,35.124 C154.273997,35.124 153.710003,35.2139991 153.11,35.394 C152.509997,35.5740009 151.958003,35.9099975 151.454,36.402 C150.949997,36.8940025 150.530002,37.5779956 150.194,38.454 C149.857998,39.3300044 149.69,40.4759929 149.69,41.892 C149.69,42.6600038 149.779999,43.4279962 149.96,44.196 C150.140001,44.9640038 150.427998,45.647997 150.824,46.248 C151.220002,46.848003 151.729997,47.3339981 152.354,47.706 C152.978003,48.0780019 153.733996,48.264 154.622,48.264 C155.822006,48.264 156.811996,47.8920037 157.592,47.148 C158.372004,46.4039963 158.857999,45.3600067 159.05,44.016 L163.154,44.016 C162.769998,46.4400121 161.852007,48.2939936 160.4,49.578 C158.947993,50.8620064 157.022012,51.504 154.622,51.504 C153.157993,51.504 151.868006,51.2580025 150.752,50.766 C149.635994,50.2739975 148.694004,49.6020043 147.926,48.75 C147.157996,47.8979957 146.576002,46.8840059 146.18,45.708 C145.783998,44.5319941 145.586,43.2600068 145.586,41.892 C145.586,40.499993 145.777998,39.1920061 146.162,37.968 C146.546002,36.7439939 147.121996,35.6820045 147.89,34.782 C148.658004,33.8819955 149.611994,33.1740026 150.752,32.658 C151.892006,32.1419974 153.229992,31.884 154.766,31.884 C155.846005,31.884 156.871995,32.0219986 157.844,32.298 C158.816005,32.5740014 159.679996,32.9879972 160.436,33.54 C161.192004,34.0920028 161.809998,34.7879958 162.29,35.628 C162.770002,36.4680042 163.058,37.4639942 163.154,38.616 L159.05,38.616 Z M166.502,32.388 L170.39,32.388 L170.39,34.98 L170.498,34.98 C170.810002,34.5239977 171.145998,34.1040019 171.506,33.72 C171.866002,33.3359981 172.267998,33.0120013 172.712,32.748 C173.156002,32.4839987 173.665997,32.2740008 174.242,32.118 C174.818003,31.9619992 175.477996,31.884 176.222,31.884 C177.350006,31.884 178.399995,32.1359975 179.372,32.64 C180.344005,33.1440025 181.033998,33.9239947 181.442,34.98 C182.138003,34.0199952 182.941995,33.2640028 183.854,32.712 C184.766005,32.1599972 185.905993,31.884 187.274,31.884 C189.24201,31.884 190.771995,32.3639952 191.864,33.324 C192.956005,34.2840048 193.502,35.8919887 193.502,38.148 L193.502,51 L189.398,51 L189.398,40.128 C189.398,39.3839963 189.374,38.7060031 189.326,38.094 C189.278,37.4819969 189.140001,36.9540022 188.912,36.51 C188.683999,36.0659978 188.342002,35.7240012 187.886,35.484 C187.429998,35.2439988 186.806004,35.124 186.014,35.124 C184.621993,35.124 183.614003,35.5559957 182.99,36.42 C182.365997,37.2840043 182.054,38.5079921 182.054,40.092 L182.054,51 L177.95,51 L177.95,39.048 C177.95,37.7519935 177.716002,36.7740033 177.248,36.114 C176.779998,35.4539967 175.922006,35.124 174.674,35.124 C174.145997,35.124 173.636002,35.2319989 173.144,35.448 C172.651998,35.6640011 172.220002,35.975998 171.848,36.384 C171.475998,36.792002 171.176001,37.295997 170.948,37.896 C170.719999,38.496003 170.606,39.1799962 170.606,39.948 L170.606,51 L166.502,51 L166.502,32.388 Z M210.602,40.056 C210.554,39.4079968 210.416001,38.784003 210.188,38.184 C209.959999,37.583997 209.648002,37.0620022 209.252,36.618 C208.855998,36.1739978 208.376003,35.8140014 207.812,35.538 C207.247997,35.2619986 206.618003,35.124 205.922,35.124 C205.201996,35.124 204.548003,35.2499987 203.96,35.502 C203.371997,35.7540013 202.868002,36.1019978 202.448,36.546 C202.027998,36.9900022 201.692001,37.511997 201.44,38.112 C201.187999,38.712003 201.05,39.3599965 201.026,40.056 L210.602,40.056 Z M201.026,42.756 C201.026,43.4760036 201.127999,44.1719966 201.332,44.844 C201.536001,45.5160034 201.841998,46.1039975 202.25,46.608 C202.658002,47.1120025 203.173997,47.5139985 203.798,47.814 C204.422003,48.1140015 205.165996,48.264 206.03,48.264 C207.230006,48.264 208.195996,48.0060026 208.928,47.49 C209.660004,46.9739974 210.205998,46.2000052 210.566,45.168 L214.454,45.168 C214.237999,46.176005 213.866003,47.075996 213.338,47.868 C212.809997,48.660004 212.174004,49.3259973 211.43,49.866 C210.685996,50.4060027 209.852005,50.8139986 208.928,51.09 C208.003995,51.3660014 207.038005,51.504 206.03,51.504 C204.565993,51.504 203.270006,51.2640024 202.142,50.784 C201.013994,50.3039976 200.060004,49.6320043 199.28,48.768 C198.499996,47.9039957 197.912002,46.872006 197.516,45.672 C197.119998,44.471994 196.922,43.1520072 196.922,41.712 C196.922,40.3919934 197.131998,39.1380059 197.552,37.95 C197.972002,36.7619941 198.571996,35.7180045 199.352,34.818 C200.132004,33.9179955 201.073994,33.2040026 202.178,32.676 C203.282006,32.1479974 204.529993,31.884 205.922,31.884 C207.386007,31.884 208.699994,32.1899969 209.864,32.802 C211.028006,33.4140031 211.993996,34.223995 212.762,35.232 C213.530004,36.240005 214.087998,37.3979935 214.436,38.706 C214.784002,40.0140065 214.874001,41.363993 214.706,42.756 L201.026,42.756 Z M235.766,33.468 C235.573999,32.7239963 235.310002,32.0400031 234.974,31.416 C234.637998,30.7919969 234.206003,30.2520023 233.678,29.796 C233.149997,29.3399977 232.532004,28.9860013 231.824,28.734 C231.115996,28.4819987 230.294005,28.356 229.358,28.356 C227.989993,28.356 226.808005,28.6319972 225.812,29.184 C224.815995,29.7360028 224.006003,30.4739954 223.382,31.398 C222.757997,32.3220046 222.296002,33.3719941 221.996,34.548 C221.695999,35.7240059 221.546,36.9239939 221.546,38.148 C221.546,39.3720061 221.695999,40.5719941 221.996,41.748 C222.296002,42.9240059 222.757997,43.9739954 223.382,44.898 C224.006003,45.8220046 224.815995,46.5599972 225.812,47.112 C226.808005,47.6640028 227.989993,47.94 229.358,47.94 C230.366005,47.94 231.253996,47.7660017 232.022,47.418 C232.790004,47.0699983 233.449997,46.5900031 234.002,45.978 C234.554003,45.3659969 234.985998,44.6520041 235.298,43.836 C235.610002,43.0199959 235.814,42.1440047 235.91,41.208 L240.302,41.208 C240.206,42.7440077 239.876003,44.1479936 239.312,45.42 C238.747997,46.6920064 237.986005,47.7899954 237.026,48.714 C236.065995,49.6380046 234.938006,50.3519975 233.642,50.856 C232.345994,51.3600025 230.918008,51.612 229.358,51.612 C227.43799,51.612 225.716008,51.2580035 224.192,50.55 C222.667992,49.8419965 221.378005,48.8760061 220.322,47.652 C219.265995,46.4279939 218.456003,45.0000082 217.892,43.368 C217.327997,41.7359918 217.046,39.9960092 217.046,38.148 C217.046,36.3239909 217.327997,34.5960082 217.892,32.964 C218.456003,31.3319918 219.265995,29.9040061 220.322,28.68 C221.378005,27.4559939 222.667992,26.4840036 224.192,25.764 C225.716008,25.0439964 227.43799,24.684 229.358,24.684 C230.798007,24.684 232.153994,24.881998 233.426,25.278 C234.698006,25.674002 235.819995,26.2499962 236.792,27.006 C237.764005,27.7620038 238.549997,28.6799946 239.15,29.76 C239.750003,30.8400054 240.121999,32.075993 240.266,33.468 L235.766,33.468 Z M252.362,51.504 C250.873993,51.504 249.548006,51.2580025 248.384,50.766 C247.219994,50.2739975 246.236004,49.5960043 245.432,48.732 C244.627996,47.8679957 244.016002,46.836006 243.596,45.636 C243.175998,44.435994 242.966,43.1160072 242.966,41.676 C242.966,40.2599929 243.175998,38.952006 243.596,37.752 C244.016002,36.551994 244.627996,35.5200043 245.432,34.656 C246.236004,33.7919957 247.219994,33.1140025 248.384,32.622 C249.548006,32.1299975 250.873993,31.884 252.362,31.884 C253.850007,31.884 255.175994,32.1299975 256.34,32.622 C257.504006,33.1140025 258.487996,33.7919957 259.292,34.656 C260.096004,35.5200043 260.707998,36.551994 261.128,37.752 C261.548002,38.952006 261.758,40.2599929 261.758,41.676 C261.758,43.1160072 261.548002,44.435994 261.128,45.636 C260.707998,46.836006 260.096004,47.8679957 259.292,48.732 C258.487996,49.5960043 257.504006,50.2739975 256.34,50.766 C255.175994,51.2580025 253.850007,51.504 252.362,51.504 Z M252.362,48.264 C253.274005,48.264 254.065997,48.0720019 254.738,47.688 C255.410003,47.3039981 255.961998,46.8000031 256.394,46.176 C256.826002,45.5519969 257.143999,44.8500039 257.348,44.07 C257.552001,43.2899961 257.654,42.4920041 257.654,41.676 C257.654,40.883996 257.552001,40.092004 257.348,39.3 C257.143999,38.507996 256.826002,37.8060031 256.394,37.194 C255.961998,36.5819969 255.410003,36.0840019 254.738,35.7 C254.065997,35.3159981 253.274005,35.124 252.362,35.124 C251.449995,35.124 250.658003,35.3159981 249.986,35.7 C249.313997,36.0840019 248.762002,36.5819969 248.33,37.194 C247.897998,37.8060031 247.580001,38.507996 247.376,39.3 C247.171999,40.092004 247.07,40.883996 247.07,41.676 C247.07,42.4920041 247.171999,43.2899961 247.376,44.07 C247.580001,44.8500039 247.897998,45.5519969 248.33,46.176 C248.762002,46.8000031 249.313997,47.3039981 249.986,47.688 C250.658003,48.0720019 251.449995,48.264 252.362,48.264 Z M265.178,32.388 L269.03,32.388 L269.03,35.988 L269.102,35.988 C269.222001,35.4839975 269.455998,34.9920024 269.804,34.512 C270.152002,34.0319976 270.571998,33.594002 271.064,33.198 C271.556002,32.801998 272.101997,32.4840012 272.702,32.244 C273.302003,32.0039988 273.913997,31.884 274.538,31.884 C275.018002,31.884 275.347999,31.8959999 275.528,31.92 C275.708001,31.9440001 275.893999,31.9679999 276.086,31.992 L276.086,35.952 C275.797999,35.9039998 275.504001,35.8620002 275.204,35.826 C274.903999,35.7899998 274.610001,35.772 274.322,35.772 C273.625997,35.772 272.972003,35.9099986 272.36,36.186 C271.747997,36.4620014 271.214002,36.8699973 270.758,37.41 C270.301998,37.9500027 269.942001,38.615996 269.678,39.408 C269.413999,40.200004 269.282,41.1119948 269.282,42.144 L269.282,51 L265.178,51 L265.178,32.388 Z M277.958,32.388 L281.846,32.388 L281.846,34.908 L281.918,34.908 C282.494003,33.8279946 283.297995,33.0540023 284.33,32.586 C285.362005,32.1179977 286.477994,31.884 287.678,31.884 C289.142007,31.884 290.419995,32.1419974 291.512,32.658 C292.604005,33.1740026 293.509996,33.8819955 294.23,34.782 C294.950004,35.6820045 295.489998,36.731994 295.85,37.932 C296.210002,39.132006 296.39,40.4159932 296.39,41.784 C296.39,43.0320062 296.228002,44.2439941 295.904,45.42 C295.579998,46.5960059 295.088003,47.6339955 294.428,48.534 C293.767997,49.4340045 292.934005,50.1539973 291.926,50.694 C290.917995,51.2340027 289.730007,51.504 288.362,51.504 C287.761997,51.504 287.162003,51.4500005 286.562,51.342 C285.961997,51.2339995 285.386003,51.0600012 284.834,50.82 C284.281997,50.5799988 283.772002,50.2740019 283.304,49.902 C282.835998,49.5299981 282.446002,49.0920025 282.134,48.588 L282.062,48.588 L282.062,57.876 L277.958,57.876 L277.958,32.388 Z M292.286,41.712 C292.286,40.8719958 292.178001,40.056004 291.962,39.264 C291.745999,38.471996 291.422002,37.7700031 290.99,37.158 C290.557998,36.5459969 290.018003,36.0540019 289.37,35.682 C288.721997,35.3099981 287.978004,35.124 287.138,35.124 C285.409991,35.124 284.108004,35.723994 283.232,36.924 C282.355996,38.124006 281.918,39.71999 281.918,41.712 C281.918,42.6480047 282.031999,43.517996 282.26,44.322 C282.488001,45.126004 282.829998,45.8159971 283.286,46.392 C283.742002,46.9680029 284.287997,47.4239983 284.924,47.76 C285.560003,48.0960017 286.297996,48.264 287.138,48.264 C288.074005,48.264 288.865997,48.0720019 289.514,47.688 C290.162003,47.3039981 290.695998,46.8060031 291.116,46.194 C291.536002,45.5819969 291.835999,44.8860039 292.016,44.106 C292.196001,43.3259961 292.286,42.5280041 292.286,41.712 Z" id="AcmeCorp"></path>
            </g>
        </g>
    </g>
</svg>